# Blender 4.0.2
# www.blender.org
mtllib charlotte.mtl
o Cube.001
v 0.610000 0.242403 -0.557600
v 0.610000 -0.242403 -0.557600
v 0.610000 0.242403 0.557600
v 0.610000 -0.242403 0.557600
v -0.610000 0.242403 -0.557600
v -0.610000 -0.242403 -0.557600
v -0.610000 0.242403 0.557600
v -0.610000 -0.242403 0.557600
vn -0.0000 1.0000 -0.0000
vn -0.0000 -0.0000 1.0000
vn -1.0000 -0.0000 -0.0000
vn -0.0000 -1.0000 -0.0000
vn 1.0000 -0.0000 -0.0000
vn -0.0000 -0.0000 -1.0000
vt 0.351788 0.440122
vt -0.001941 0.440122
vt -0.001941 0.001081
vt 0.351788 0.001081
vt -0.001941 0.440122
vt 0.096639 0.440122
vt 0.096639 0.703613
vt -0.001941 0.703613
vt 0.450368 0.001081
vt 0.450368 0.440122
vt 0.548948 0.440122
vt 0.450368 0.440122
vt 0.450368 0.001081
vt 0.548948 0.001081
vt 0.096639 0.440122
vt 0.195219 0.440122
vt 0.195219 0.703613
vt 0.096639 0.703613
s 0
usemtl Material.004
f 1/1/1 5/2/1 7/3/1 3/4/1
f 4/5/2 3/6/2 7/7/2 8/8/2
f 8/4/3 7/9/3 5/10/3 6/1/3
f 6/1/4 2/2/4 4/3/4 8/4/4
f 2/11/5 1/12/5 3/13/5 4/14/5
f 6/15/6 5/16/6 1/17/6 2/18/6
