# Blender 4.0.2
# www.blender.org
mtllib untitled.mtl
o Cube
v 0.610000 0.170000 -1.000000
v 0.610000 -0.170000 -1.000000
v 0.610000 0.170000 1.000000
v 0.610000 -0.170000 1.000000
v -0.610000 0.170000 -1.000000
v -0.610000 -0.170000 -1.000000
v -0.610000 0.170000 1.000000
v -0.610000 -0.170000 1.000000
vn -0.0000 1.0000 -0.0000
vn -0.0000 -0.0000 1.0000
vn -1.0000 -0.0000 -0.0000
vn -0.0000 -1.0000 -0.0000
vn 1.0000 -0.0000 -0.0000
vn -0.0000 -0.0000 -1.0000
vt 0.378882 0.621118
vt 0.000000 0.621118
vt 0.000000 0.000000
vt 0.378882 0.000000
vt -0.000000 0.621118
vt 0.105590 0.621118
vt 0.105590 1.000000
vt 0.000000 1.000000
vt 0.757764 0.000000
vt 0.863354 0.000000
vt 0.863354 0.621118
vt 0.757764 0.621118
vt 0.757764 0.621118
vt 0.757764 0.000000
vt 0.968944 0.621118
vt 0.863354 0.621118
vt 0.863354 0.000000
vt 0.968944 0.000000
vt 0.105590 0.621118
vt 0.211180 0.621118
vt 0.211180 1.000000
vt 0.105590 1.000000
s 0
usemtl Material.001
f 4/5/2 3/6/2 7/7/2 8/8/2
f 8/9/3 7/10/3 5/11/3 6/12/3
f 2/15/5 1/16/5 3/17/5 4/18/5
f 6/19/6 5/20/6 1/21/6 2/22/6
usemtl Material.002
f 1/1/1 5/2/1 7/3/1 3/4/1
f 6/13/4 2/1/4 4/4/4 8/14/4
